# xmcd
#
# Track frame offsets: 
#        150
#        21376
#        39601
#        57728
#        76116
#        92151
#        111634
#        132098
#        151028
#        167335
#        184510
#        202743
#        220782
#        244332
#        314015
#
# Disc length: 4352 seconds
#
# Revision: 1
# Processed by: cddbd v1.5.1PL0 Copyright (c) Steve Scherf et al.
# Submitted via: ExactAudioCopy v0.95a4
#
DISCID=c910fe0f
DTITLE=Joss Stone - Mind, Body and Soul
DYEAR=2004
DGENRE=Vocal
TTITLE0=Right to be Wrong
TTITLE1=Jet Lag
TTITLE2=You Had Me
TTITLE3=Spoiled
TTITLE4=Don't Cha Wanna Ride
TTITLE5=Less is More
TTITLE6=Security
TTITLE7=Young At Heart
TTITLE8=Snake Find Ladders
TTITLE9=Understand
TTITLE10=Don't Know How
TTITLE11=Torn and Tattered
TTITLE12=Killing Time
TTITLE13=Sleeping Like A Child
TTITLE14=Unknown
EXTD=
EXTT0=
EXTT1=
EXTT2=
EXTT3=
EXTT4=
EXTT5=
EXTT6=
EXTT7=
EXTT8=
EXTT9=
EXTT10=
EXTT11=
EXTT12=
EXTT13=
EXTT14=
PLAYORDER=
